<svg width="25" height="25" viewBox="0 0 25 25" fill="none" xmlns="http://www.w3.org/2000/svg">
<circle cx="12.5" cy="12.5" r="12.5" fill="#A88A5F"/>
<path d="M8.00299 10.0272C9.39691 13.8298 10.84 15.347 14.5111 16.963L12.9201 19.1974C8.70453 17.1792 6.60482 13.7771 5.61592 11.1221L8.00299 10.0272Z" fill="#EBE7E6"/>
<path d="M9.17226 4.77768C9.91763 4.77476 10.4844 5.39498 10.4336 6.09727C10.3536 7.20245 10.4387 7.99982 10.6679 8.98819C10.7939 9.5311 10.509 10.0825 10.0563 10.4377C9.44622 10.9164 8.98009 11.5263 8.60963 12.0514C8.09615 12.7792 6.32908 12.7269 5.93829 11.9341C5.13515 10.3046 4.59087 7.30263 5.76368 5.27442C5.9479 4.95584 6.31882 4.78883 6.70318 4.78733L9.17226 4.77768Z" fill="#EBE7E6"/>
<path d="M20.4868 16.8336C20.5795 16.1351 19.9957 15.5292 19.2513 15.4924C18.08 15.4344 17.252 15.2587 16.2406 14.925C15.6851 14.7416 15.0712 14.9424 14.6434 15.3241C14.0668 15.8385 13.3696 16.2022 12.7731 16.4864C11.9463 16.8803 11.7888 18.5433 12.5752 19.005C14.1915 19.9539 17.2816 20.8253 19.5547 19.9696C19.9117 19.8352 20.1319 19.5075 20.1797 19.1473L20.4868 16.8336Z" fill="#EBE7E6"/>
</svg>
