<svg width="25" height="25" viewBox="0 0 25 25" fill="none" xmlns="http://www.w3.org/2000/svg">
<circle cx="12.5" cy="12.5" r="12.5" fill="#A88A5F"/>
<path fill-rule="evenodd" clip-rule="evenodd" d="M18.5321 7C19.0115 7 19.4373 7.22368 19.7052 7.56965L11.9251 13.9201L4.21428 7.68497C4.4721 7.27419 4.93709 7 5.46789 7H18.5321ZM4 17.5714V8.81184L9.53269 13.2857L4.01141 17.7504C4.00388 17.6918 4 17.632 4 17.5714ZM4.506 18.6506C4.76361 18.8682 5.09994 19 5.46789 19H18.5321C18.8484 19 19.1413 18.9027 19.3809 18.7371L13.5018 13.9383L12.4445 14.8013C12.1455 15.0453 11.7099 15.0463 11.4098 14.8036L10.3366 13.9358L4.506 18.6506ZM14.3013 13.2857L19.9599 17.9045C19.9861 17.7977 20 17.6861 20 17.5714V8.63415L14.3013 13.2857Z" fill="#EBE7E6"/>
</svg>
