<svg width="169" height="169" viewBox="0 0 169 169" fill="none" xmlns="http://www.w3.org/2000/svg">
<rect width="169" height="169" rx="67" fill="#EBE7E6"/>
<path d="M77 110.38C77 109.248 77.2069 108.128 77.609 107.082C78.011 106.036 78.6003 105.086 79.3431 104.285C80.086 103.485 80.9679 102.85 81.9385 102.417C82.9091 101.984 83.9494 101.761 85 101.761C86.0506 101.761 87.0909 101.984 88.0615 102.417C89.0321 102.85 89.914 103.485 90.6569 104.285C91.3997 105.086 91.989 106.036 92.391 107.082C92.7931 108.128 93 109.248 93 110.38C93 112.666 92.1571 114.859 90.6569 116.475C89.1566 118.092 87.1217 119 85 119C82.8783 119 80.8434 118.092 79.3431 116.475C77.8429 114.859 77 112.666 77 110.38V110.38ZM77.784 58.6196C77.6775 57.5322 77.7843 56.4327 78.0976 55.3927C78.4109 54.3526 78.9236 53.3951 79.6026 52.5823C80.2815 51.7695 81.1114 51.1196 82.0385 50.6748C82.9656 50.2299 83.9691 50 84.984 50C85.9989 50 87.0024 50.2299 87.9295 50.6748C88.8566 51.1196 89.6865 51.7695 90.3654 52.5823C91.0444 53.3951 91.5571 54.3526 91.8704 55.3927C92.1837 56.4327 92.2905 57.5322 92.184 58.6196L89.384 88.8486C89.2702 90.0205 88.7576 91.1056 87.9451 91.8943C87.1325 92.6829 86.0776 93.1194 84.984 93.1194C83.8904 93.1194 82.8355 92.6829 82.0229 91.8943C81.2104 91.1056 80.6978 90.0205 80.584 88.8486L77.784 58.6196Z" fill="#A88A5F"/>
</svg>
