<svg width="169" height="169" viewBox="0 0 169 169" fill="none" xmlns="http://www.w3.org/2000/svg">
<rect width="169" height="169" rx="67" fill="#EBE7E6"/>
<path d="M74.8 112.2H64.6C60.9931 112.2 57.5338 110.767 54.9833 108.217C52.4329 105.666 51 102.207 51 98.6V68C51 64.3931 52.4329 60.9338 54.9833 58.3833C57.5338 55.8329 60.9931 54.4 64.6 54.4H102C105.607 54.4 109.066 55.8329 111.617 58.3833C114.167 60.9338 115.6 64.3931 115.6 68V78.2M71.4 51V57.8M95.2 51V57.8M51 71.4H115.6M107.1 97.3862L102 102.486" stroke="#A88A5F" stroke-width="3" stroke-linecap="round" stroke-linejoin="round"/>
<path d="M102 119C111.389 119 119 111.389 119 102C119 92.6112 111.389 85 102 85C92.6112 85 85 92.6112 85 102C85 111.389 92.6112 119 102 119Z" stroke="#A88A5F" stroke-width="3" stroke-linecap="round" stroke-linejoin="round"/>
</svg>
