<svg width="169" height="169" viewBox="0 0 169 169" fill="none" xmlns="http://www.w3.org/2000/svg">
<rect width="169" height="169" rx="67" fill="#EBE7E6"/>
<path fill-rule="evenodd" clip-rule="evenodd" d="M70.4838 100.84C80.9224 99.3146 88.1097 99.4458 98.5621 100.893C99.319 101.003 100.011 101.383 100.509 101.963C101.008 102.543 101.28 103.283 101.275 104.048C101.275 104.78 101.023 105.491 100.569 106.046C99.7769 107.014 98.9654 107.966 98.1351 108.901H102.163C102.416 108.599 102.67 108.291 102.928 107.978C103.833 106.869 104.326 105.481 104.325 104.05C104.325 100.962 102.071 98.3005 98.9799 97.8735C88.2805 96.3927 80.8019 96.2509 70.043 97.8232C66.9198 98.2792 64.675 100.981 64.675 104.091C64.675 105.471 65.1249 106.836 65.9774 107.942C66.229 108.268 66.4776 108.588 66.7246 108.902H70.6546C69.882 107.977 69.1285 107.037 68.3945 106.081C67.9583 105.509 67.723 104.809 67.725 104.089C67.725 102.447 68.9054 101.07 70.4838 100.84ZM84.5 86.0258C85.7016 86.0258 86.8915 85.7891 88.0016 85.3293C89.1117 84.8694 90.1204 84.1955 90.9701 83.3458C91.8197 82.4962 92.4937 81.4875 92.9535 80.3773C93.4134 79.2672 93.65 78.0774 93.65 76.8758C93.65 75.6742 93.4134 74.4844 92.9535 73.3742C92.4937 72.2641 91.8197 71.2554 90.9701 70.4058C90.1204 69.5561 89.1117 68.8821 88.0016 68.4223C86.8915 67.9625 85.7016 67.7258 84.5 67.7258C82.0733 67.7258 79.746 68.6898 78.03 70.4058C76.3141 72.1217 75.35 74.4491 75.35 76.8758C75.35 79.3025 76.3141 81.6299 78.03 83.3458C79.746 85.0618 82.0733 86.0258 84.5 86.0258V86.0258ZM84.5 89.0758C87.7357 89.0758 90.8388 87.7904 93.1268 85.5025C95.4147 83.2145 96.7 80.1114 96.7 76.8758C96.7 73.6401 95.4147 70.537 93.1268 68.2491C90.8388 65.9611 87.7357 64.6758 84.5 64.6758C81.2644 64.6758 78.1613 65.9611 75.8733 68.2491C73.5854 70.537 72.3 73.6401 72.3 76.8758C72.3 80.1114 73.5854 83.2145 75.8733 85.5025C78.1613 87.7904 81.2644 89.0758 84.5 89.0758V89.0758Z" fill="#A88A5F"/>
<path fill-rule="evenodd" clip-rule="evenodd" d="M84.5 111.95C99.66 111.95 111.95 99.66 111.95 84.5C111.95 69.34 99.66 57.05 84.5 57.05C69.34 57.05 57.05 69.34 57.05 84.5C57.05 99.66 69.34 111.95 84.5 111.95ZM84.5 115C101.345 115 115 101.345 115 84.5C115 67.6549 101.345 54 84.5 54C67.6549 54 54 67.6549 54 84.5C54 101.345 67.6549 115 84.5 115Z" fill="#A88A5F"/>
</svg>
