<svg width="61" height="61" viewBox="0 0 61 61" fill="none" xmlns="http://www.w3.org/2000/svg">
<path fill-rule="evenodd" clip-rule="evenodd" d="M16.4838 46.8396C26.9224 45.3146 34.1097 45.4458 44.5621 46.893C45.319 47.0027 46.0107 47.3827 46.5094 47.9626C47.008 48.5426 47.28 49.2834 47.275 50.0482C47.275 50.7802 47.0234 51.4909 46.569 52.046C45.7769 53.0138 44.9654 53.9656 44.1351 54.9008H48.1626C48.4157 54.5988 48.6704 54.2908 48.9281 53.9782C49.8327 52.8689 50.3262 51.4811 50.325 50.0498C50.325 46.9616 48.0711 44.3005 44.9799 43.8735C34.2805 42.3927 26.8019 42.2509 16.043 43.8232C12.9198 44.2792 10.675 46.9815 10.675 50.0909C10.675 51.4711 11.1249 52.8359 11.9774 53.9416C12.229 54.2679 12.4776 54.5882 12.7246 54.9023H16.6546C15.882 53.9774 15.1285 53.0368 14.3945 52.0811C13.9583 51.5089 13.723 50.8089 13.725 50.0894C13.725 48.447 14.9054 47.0699 16.4838 46.8396ZM30.5 32.0258C31.7016 32.0258 32.8915 31.7891 34.0016 31.3293C35.1117 30.8694 36.1204 30.1955 36.9701 29.3458C37.8197 28.4962 38.4937 27.4875 38.9535 26.3773C39.4134 25.2672 39.65 24.0774 39.65 22.8758C39.65 21.6742 39.4134 20.4844 38.9535 19.3742C38.4937 18.2641 37.8197 17.2554 36.9701 16.4058C36.1204 15.5561 35.1117 14.8821 34.0016 14.4223C32.8915 13.9625 31.7016 13.7258 30.5 13.7258C28.0733 13.7258 25.746 14.6898 24.03 16.4058C22.3141 18.1217 21.35 20.449 21.35 22.8758C21.35 25.3025 22.3141 27.6299 24.03 29.3458C25.746 31.0618 28.0733 32.0258 30.5 32.0258ZM30.5 35.0758C33.7357 35.0758 36.8388 33.7904 39.1268 31.5025C41.4147 29.2145 42.7 26.1114 42.7 22.8758C42.7 19.6401 41.4147 16.537 39.1268 14.2491C36.8388 11.9611 33.7357 10.6758 30.5 10.6758C27.2644 10.6758 24.1613 11.9611 21.8733 14.2491C19.5854 16.537 18.3 19.6401 18.3 22.8758C18.3 26.1114 19.5854 29.2145 21.8733 31.5025C24.1613 33.7904 27.2644 35.0758 30.5 35.0758Z" fill="#A88A5F"/>
<path fill-rule="evenodd" clip-rule="evenodd" d="M30.5 57.95C45.66 57.95 57.95 45.66 57.95 30.5C57.95 15.34 45.66 3.05 30.5 3.05C15.34 3.05 3.05 15.34 3.05 30.5C3.05 45.66 15.34 57.95 30.5 57.95ZM30.5 61C47.3451 61 61 47.3451 61 30.5C61 13.6549 47.3451 0 30.5 0C13.6549 0 0 13.6549 0 30.5C0 47.3451 13.6549 61 30.5 61Z" fill="#A88A5F"/>
</svg>
