<svg aria-hidden="true" style="position: absolute; width: 0; height: 0; overflow: hidden;" version="1.1" xmlns="http://www.w3.org/2000/svg" xmlns:xlink="http://www.w3.org/1999/xlink">
<defs>
<symbol id="icon-mic" viewBox="0 0 24 24">
<path d="M17.297 11.016h1.688q0 2.531-1.758 4.43t-4.242 2.273v3.281h-1.969v-3.281q-2.484-0.375-4.242-2.273t-1.758-4.43h1.688q0 2.203 1.57 3.633t3.727 1.43 3.727-1.43 1.57-3.633zM12 14.016q-1.219 0-2.109-0.891t-0.891-2.109v-6q0-1.219 0.891-2.109t2.109-0.891 2.109 0.891 0.891 2.109v6q0 1.219-0.891 2.109t-2.109 0.891z"></path>
</symbol>
<symbol id="icon-mic_off" viewBox="0 0 24 24">
<path d="M4.266 3l16.734 16.734-1.266 1.266-4.172-4.172q-1.031 0.656-2.578 0.891v3.281h-1.969v-3.281q-2.484-0.375-4.242-2.273t-1.758-4.43h1.688q0 2.203 1.57 3.633t3.727 1.43q1.172 0 2.297-0.516l-1.641-1.641q-0.375 0.094-0.656 0.094-1.219 0-2.109-0.891t-0.891-2.109v-0.75l-6-6zM15 11.156l-6-5.953v-0.188q0-1.219 0.891-2.109t2.109-0.891 2.109 0.891 0.891 2.109v6.141zM18.984 11.016q0 1.734-0.891 3.281l-1.219-1.266q0.422-0.938 0.422-2.016h1.688z"></path>
</symbol>
<symbol id="icon-videocam" viewBox="0 0 24 24">
<path d="M17.016 10.5l3.984-3.984v10.969l-3.984-3.984v3.516q0 0.422-0.305 0.703t-0.727 0.281h-12q-0.422 0-0.703-0.281t-0.281-0.703v-10.031q0-0.422 0.281-0.703t0.703-0.281h12q0.422 0 0.727 0.281t0.305 0.703v3.516z"></path>
</symbol>
<symbol id="icon-videocam_off" viewBox="0 0 24 24">
<path d="M3.281 2.016l17.719 17.719-1.266 1.266-3.188-3.188q-0.281 0.188-0.563 0.188h-12q-0.422 0-0.703-0.281t-0.281-0.703v-10.031q0-0.422 0.281-0.703t0.703-0.281h0.75l-2.719-2.719zM21 6.516v10.688l-11.203-11.203h6.188q0.422 0 0.727 0.281t0.305 0.703v3.516z"></path>
</symbol>
<symbol id="icon-airplay" viewBox="0 0 24 24">
<path d="M21 3q0.797 0 1.406 0.609t0.609 1.406v12q0 0.797-0.609 1.383t-1.406 0.586h-3.984v-1.969h3.984v-12h-18v12h3.984v1.969h-3.984q-0.797 0-1.406-0.586t-0.609-1.383v-12q0-0.797 0.609-1.406t1.406-0.609h18zM6 21.984l6-6 6 6h-12z"></path>
</symbol>
<symbol id="icon-call" viewBox="0 0 24 24">
<path d="M20.016 15.375q0.422 0 0.703 0.281t0.281 0.703v3.469q0 1.172-0.984 1.172-6.984 0-12-5.016t-5.016-12q0-0.984 1.172-0.984h3.469q0.422 0 0.703 0.281t0.281 0.703q0 1.828 0.563 3.516 0.188 0.609-0.234 1.031l-1.922 1.688q2.156 4.5 6.891 6.797l1.547-1.969q0.281-0.281 0.703-0.281 0.234 0 0.328 0.047 1.688 0.563 3.516 0.563z"></path>
</symbol>
<symbol id="icon-call_end" viewBox="0 0 24 24">
<path d="M12 9q-2.438 0-4.594 0.703v3.094q0 0.703-0.563 0.938-1.5 0.703-2.672 1.828-0.281 0.281-0.703 0.281t-0.703-0.281l-2.484-2.484q-0.281-0.281-0.281-0.703t0.281-0.703q4.922-4.688 11.719-4.688t11.719 4.688q0.281 0.281 0.281 0.703t-0.281 0.703l-2.484 2.484q-0.281 0.281-0.703 0.281t-0.703-0.281q-1.031-0.984-2.672-1.828-0.563-0.234-0.563-0.891v-3.094q-2.344-0.75-4.594-0.75z"></path>
</symbol>
<symbol id="icon-list_alt" viewBox="0 0 24 24">
<path d="M6.984 15h2.016v2.016h-2.016v-2.016zM6.984 11.016h2.016v1.969h-2.016v-1.969zM6.984 6.984h2.016v2.016h-2.016v-2.016zM11.016 15h6v2.016h-6v-2.016zM11.016 11.016h6v1.969h-6v-1.969zM11.016 6.984h6v2.016h-6v-2.016zM20.109 3q0.328 0 0.609 0.258t0.281 0.633v16.219q0 0.328-0.281 0.609t-0.609 0.281h-16.219q-0.375 0-0.633-0.281t-0.258-0.609v-16.219q0-0.891 0.891-0.891h16.219zM18.984 5.016h-13.969v13.969h13.969v-13.969z"></path>
</symbol>
<symbol id="icon-network_wifi" viewBox="0 0 24 24">
<path d="M20.438 10.922l0.047 0.047-8.484 10.5-8.484-10.5 0.047-0.047-3.188-3.938q5.672-3.984 11.625-3.984t11.625 3.984z"></path>
</symbol>
<symbol id="icon-signal_wifi_off" viewBox="0 0 24 24">
<path d="M3.281 1.453q0.563 0.563 7.195 7.172t10.008 10.078l-1.266 1.266-3.328-3.328-3.891 4.828-11.625-14.484q1.547-1.266 3.656-2.203l-2.016-2.063zM23.625 6.984l-5.438 6.797-10.359-10.313q2.109-0.469 4.172-0.469 5.953 0 11.625 3.984z"></path>
</symbol>
<symbol id="icon-attach_file" viewBox="0 0 24 24">
<path d="M16.5 6h1.5v11.484q0 2.297-1.594 3.914t-3.891 1.617-3.914-1.617-1.617-3.914v-12.469q0-1.641 1.195-2.836t2.836-1.195 2.813 1.195 1.172 2.836v10.5q0 1.031-0.727 1.758t-1.758 0.727-1.781-0.727-0.75-1.758v-9.516h1.5v9.516q0 0.422 0.305 0.703t0.727 0.281 0.703-0.281 0.281-0.703v-10.5q0-1.031-0.727-1.781t-1.758-0.75-1.781 0.75-0.75 1.781v12.469q0 1.641 1.195 2.836t2.836 1.195 2.813-1.195 1.172-2.836v-11.484z"></path>
</symbol>
<symbol id="icon-center_focus_strong" viewBox="0 0 24 24">
<path d="M18.984 18.984v-3.984h2.016v3.984q0 0.797-0.609 1.406t-1.406 0.609h-3.984v-2.016h3.984zM18.984 3q0.797 0 1.406 0.609t0.609 1.406v3.984h-2.016v-3.984h-3.984v-2.016h3.984zM5.016 5.016v3.984h-2.016v-3.984q0-0.797 0.609-1.406t1.406-0.609h3.984v2.016h-3.984zM5.016 15v3.984h3.984v2.016h-3.984q-0.797 0-1.406-0.609t-0.609-1.406v-3.984h2.016zM12 8.016q1.641 0 2.813 1.172t1.172 2.813-1.172 2.813-2.813 1.172-2.813-1.172-1.172-2.813 1.172-2.813 2.813-1.172z"></path>
</symbol>
<symbol id="icon-center_focus_weak" viewBox="0 0 24 24">
<path d="M12 14.016q0.797 0 1.406-0.609t0.609-1.406-0.609-1.406-1.406-0.609-1.406 0.609-0.609 1.406 0.609 1.406 1.406 0.609zM12 8.016q1.641 0 2.813 1.172t1.172 2.813-1.172 2.813-2.813 1.172-2.813-1.172-1.172-2.813 1.172-2.813 2.813-1.172zM18.984 18.984v-3.984h2.016v3.984q0 0.797-0.609 1.406t-1.406 0.609h-3.984v-2.016h3.984zM18.984 3q0.797 0 1.406 0.609t0.609 1.406v3.984h-2.016v-3.984h-3.984v-2.016h3.984zM5.016 5.016v3.984h-2.016v-3.984q0-0.797 0.609-1.406t1.406-0.609h3.984v2.016h-3.984zM5.016 15v3.984h3.984v2.016h-3.984q-0.797 0-1.406-0.609t-0.609-1.406v-3.984h2.016z"></path>
</symbol>
<symbol id="icon-crop_free" viewBox="0 0 24 24">
<path d="M18.984 3q0.797 0 1.406 0.609t0.609 1.406v3.984h-2.016v-3.984h-3.984v-2.016h3.984zM18.984 18.984v-3.984h2.016v3.984q0 0.797-0.609 1.406t-1.406 0.609h-3.984v-2.016h3.984zM5.016 15v3.984h3.984v2.016h-3.984q-0.797 0-1.406-0.609t-0.609-1.406v-3.984h2.016zM3 5.016q0-0.797 0.609-1.406t1.406-0.609h3.984v2.016h-3.984v3.984h-2.016v-3.984z"></path>
</symbol>
<symbol id="icon-crop_original" viewBox="0 0 24 24">
<path d="M13.969 12.281l3.516 4.734h-10.969l2.719-3.563 1.969 2.391zM18.984 18.984v-13.969h-13.969v13.969h13.969zM18.984 3q0.797 0 1.406 0.609t0.609 1.406v13.969q0 0.797-0.609 1.406t-1.406 0.609h-13.969q-0.797 0-1.406-0.609t-0.609-1.406v-13.969q0-0.797 0.609-1.406t1.406-0.609h13.969z"></path>
</symbol>
<symbol id="icon-picture_as_pdf" viewBox="0 0 24 24">
<path d="M14.016 11.484v-3h0.984v3h-0.984zM3.984 6v14.016h14.016v1.969h-14.016q-0.797 0-1.383-0.586t-0.586-1.383v-14.016h1.969zM9 9.516v-1.031h0.984v1.031h-0.984zM20.484 8.484v-1.5h-3v6h1.5v-1.969h1.5v-1.5h-1.5v-1.031h1.5zM16.5 11.484v-3q0-0.609-0.422-1.055t-1.078-0.445h-2.484v6h2.484q0.656 0 1.078-0.445t0.422-1.055zM11.484 9.516v-1.031q0-0.609-0.445-1.055t-1.055-0.445h-2.484v6h1.5v-1.969h0.984q0.609 0 1.055-0.445t0.445-1.055zM20.016 2.016q0.797 0 1.383 0.586t0.586 1.383v12q0 0.797-0.586 1.406t-1.383 0.609h-12q-0.797 0-1.406-0.609t-0.609-1.406v-12q0-0.797 0.609-1.383t1.406-0.586h12z"></path>
</symbol>
<symbol id="icon-add_a_photo" viewBox="0 0 24 24">
<path d="M9.797 14.016q0-1.359 0.938-2.297t2.25-0.938q1.359 0 2.297 0.938t0.938 2.297q0 1.313-0.938 2.25t-2.297 0.938-2.273-0.914-0.914-2.273zM12.984 18.984q2.063 0 3.539-1.453t1.477-3.516-1.477-3.539-3.539-1.477-3.516 1.477-1.453 3.539 1.453 3.516 3.516 1.453zM6 9.984v-3h3v-3h6.984l1.828 2.016h3.188q0.797 0 1.406 0.609t0.609 1.406v12q0 0.797-0.609 1.383t-1.406 0.586h-15.984q-0.797 0-1.406-0.586t-0.609-1.383v-10.031h3zM3 3.984v-3h2.016v3h3v2.016h-3v3h-2.016v-3h-3v-2.016h3z"></path>
</symbol>
<symbol id="icon-build" viewBox="0 0 24 24">
<path d="M22.688 18.984q0.328 0.188 0.305 0.633t-0.398 0.773l-2.297 2.297q-0.703 0.703-1.406 0l-9.094-9.094q-1.688 0.703-3.586 0.305t-3.305-1.805q-1.5-1.5-1.875-3.563t0.563-3.844l4.406 4.313 3-3-4.313-4.313q1.781-0.844 3.844-0.516t3.563 1.828q1.406 1.406 1.805 3.305t-0.305 3.586z"></path>
</symbol>
<symbol id="icon-support_agent" viewBox="0 0 24 24">
<path d="M21 12.234q0-2.063-0.727-3.75t-1.992-2.93-2.883-1.898-3.398-0.656-3.375 0.656-2.883 1.875-2.016 2.93-0.727 3.82q-0.469 0.234-0.727 0.703t-0.258 1.031v1.969q0 0.844 0.586 1.43t1.383 0.586h1.031v-6.094q0-1.453 0.539-2.719t1.5-2.227 2.227-1.5 2.719-0.539 2.719 0.539 2.227 1.5 1.5 2.227 0.539 2.719v7.078h-7.969v2.016h7.969q0.844 0 1.43-0.586t0.586-1.43v-1.219q0.422-0.234 0.703-0.656t0.281-0.984v-2.297q0-0.516-0.281-0.938t-0.703-0.656zM8.016 12.984q0-0.422 0.281-0.703t0.703-0.281 0.703 0.281 0.281 0.703-0.281 0.727-0.703 0.305-0.703-0.305-0.281-0.727zM14.016 12.984q0-0.422 0.281-0.703t0.703-0.281 0.703 0.281 0.281 0.703-0.281 0.727-0.703 0.305-0.703-0.305-0.281-0.727zM18 11.016q-0.234-1.406-1.078-2.555t-2.109-1.805-2.766-0.656q-1.125 0-2.25 0.445t-2.016 1.289-1.383 2.039-0.398 2.695q1.875-0.797 3.188-2.344t1.688-3.563q0.656 1.313 1.734 2.32t2.461 1.57 2.93 0.563z"></path>
</symbol>
<symbol id="icon-flip_camera_ios" viewBox="0 0 24 24">
<path d="M16.5 15.516l2.484-2.531h-1.969q0-2.063-1.477-3.516t-3.539-1.453q-1.219 0-2.344 0.609l0.703 0.703q0.656-0.328 1.641-0.328 1.641 0 2.813 1.172t1.172 2.813h-1.969zM12 18q1.219 0 2.344-0.609l-0.703-0.75q-0.75 0.375-1.641 0.375-1.641 0-2.813-1.195t-1.172-2.836h1.969l-2.484-2.484-2.484 2.484h1.969q0 2.063 1.477 3.539t3.539 1.477zM20.016 5.016q0.797 0 1.383 0.586t0.586 1.383v12q0 0.797-0.586 1.406t-1.383 0.609h-16.031q-0.797 0-1.383-0.609t-0.586-1.406v-12q0-0.797 0.586-1.383t1.383-0.586h3.188l1.828-2.016h6l1.828 2.016h3.188z"></path>
</symbol>
</defs>
</svg>
